<?xml version="1.0" standalone="no"?>
<!DOCTYPE svg PUBLIC "-//W3C//DTD SVG 20010904//EN"
 "http://www.w3.org/TR/2001/REC-SVG-20010904/DTD/svg10.dtd">
<svg version="1.0" xmlns="http://www.w3.org/2000/svg"
 width="800.000000pt" height="800.000000pt" viewBox="0 0 800.000000 800.000000"
 preserveAspectRatio="xMidYMid meet">
<metadata>
Created by potrace 1.14, written by Peter Selinger 2001-2017
</metadata>
<g transform="translate(0.000000,800.000000) scale(0.100000,-0.100000)"
fill="#000000" stroke="none">
<path d="M3810 7710 c0 -3 -19 -6 -42 -6 -40 0 -162 -10 -218 -18 -14 -2 -50
-7 -80 -10 -30 -4 -71 -11 -90 -15 -20 -4 -43 -7 -53 -5 -9 1 -17 -1 -17 -5 0
-4 -6 -8 -12 -8 -13 -1 -43 -6 -108 -18 -19 -4 -37 -10 -40 -13 -3 -4 -14 -7
-25 -6 -11 0 -26 -4 -33 -9 -7 -6 -15 -7 -19 -4 -3 3 -21 0 -39 -8 -19 -8 -34
-11 -34 -8 0 3 -6 1 -13 -5 -7 -6 -24 -13 -37 -15 -14 -2 -32 -7 -40 -10 -14
-5 -88 -29 -100 -32 -3 -1 -13 -5 -22 -8 -27 -10 -48 -17 -51 -15 -1 0 -21 -9
-44 -21 -24 -12 -43 -19 -43 -16 0 2 -17 -4 -37 -14 -21 -11 -72 -34 -113 -52
-41 -17 -85 -38 -97 -47 -13 -8 -23 -10 -23 -6 0 5 -4 5 -8 -1 -4 -5 -38 -26
-77 -46 -38 -20 -94 -50 -123 -68 -29 -17 -55 -31 -58 -31 -3 0 -10 -4 -17
-10 -7 -5 -57 -39 -112 -76 -55 -36 -101 -70 -103 -75 -2 -5 -9 -9 -15 -9 -7
0 -27 -14 -46 -30 -18 -17 -37 -30 -40 -30 -3 0 -17 -10 -31 -23 -14 -12 -50
-42 -80 -67 -127 -105 -308 -282 -415 -405 -38 -44 -71 -82 -74 -85 -3 -3 -30
-36 -58 -75 -29 -38 -59 -77 -68 -86 -8 -9 -15 -21 -15 -27 0 -7 -4 -12 -9
-12 -5 0 -12 -8 -15 -18 -4 -10 -14 -27 -24 -38 -23 -26 -72 -102 -72 -112 0
-5 -9 -17 -20 -27 -11 -10 -22 -26 -25 -37 -4 -10 -24 -47 -45 -81 -52 -86
-160 -303 -160 -322 0 -8 -4 -15 -10 -15 -5 0 -10 -6 -10 -14 0 -12 -21 -65
-50 -131 -5 -11 -11 -27 -12 -35 -2 -8 -5 -17 -8 -20 -6 -6 -59 -158 -65 -186
-2 -11 -15 -57 -28 -104 -22 -75 -47 -178 -63 -251 -2 -13 -5 -36 -6 -51 -1
-16 -4 -28 -7 -28 -3 0 -7 -17 -9 -38 -2 -35 -9 -77 -12 -77 -1 0 -3 -16 -5
-36 -1 -19 -6 -62 -10 -95 -18 -144 -27 -561 -14 -621 4 -19 3 -33 -2 -33 -6
0 -6 -7 0 -17 5 -10 10 -49 12 -88 1 -38 5 -74 8 -80 3 -5 6 -30 8 -55 3 -42
10 -85 13 -85 1 0 3 -12 5 -26 10 -75 23 -143 42 -214 8 -33 17 -69 18 -80 1
-11 3 -20 4 -20 3 0 6 -12 15 -53 3 -13 10 -40 17 -60 28 -89 52 -158 59 -177
10 -24 20 -56 20 -70 1 -5 8 -20 16 -32 8 -13 12 -23 9 -23 -3 0 4 -16 15 -37
10 -20 17 -40 14 -45 -3 -4 0 -8 5 -8 6 0 11 -5 11 -11 0 -17 117 -267 131
-279 3 -3 12 -20 20 -37 8 -18 17 -33 21 -33 5 0 7 -3 6 -7 -2 -8 80 -153 92
-163 3 -3 17 -23 30 -45 13 -22 26 -42 29 -45 4 -3 24 -32 46 -64 22 -33 44
-64 50 -70 5 -6 29 -36 52 -66 23 -30 51 -65 63 -77 11 -13 19 -23 17 -23 -8
0 104 -120 218 -235 113 -113 201 -193 270 -246 17 -13 35 -29 40 -35 10 -11
201 -150 233 -169 9 -5 20 -14 24 -20 4 -5 8 -6 8 -2 0 4 10 -1 22 -13 12 -11
27 -20 34 -20 6 0 14 -7 18 -15 3 -8 10 -15 16 -15 12 0 166 -87 191 -107 8
-7 21 -13 27 -13 6 0 34 -13 62 -30 27 -16 50 -28 50 -25 0 2 28 -10 63 -28
34 -17 64 -32 67 -32 3 -1 18 -7 33 -13 16 -7 33 -12 38 -12 5 0 9 -5 9 -11 0
-5 4 -8 8 -5 4 2 21 -1 37 -9 52 -23 139 -55 161 -59 11 -2 37 -11 57 -20 20
-8 37 -13 37 -10 0 2 16 -3 36 -11 40 -16 70 -24 124 -32 19 -3 40 -9 45 -13
6 -4 26 -10 45 -14 19 -3 46 -9 60 -12 14 -3 34 -7 45 -9 11 -2 31 -7 45 -10
14 -3 37 -6 53 -7 15 -1 27 -4 27 -7 0 -3 15 -6 33 -7 17 0 52 -4 77 -8 61
-10 133 -17 205 -19 33 -2 65 -5 70 -8 16 -8 570 2 570 11 0 1 20 3 45 5 25 3
59 7 75 10 17 3 43 6 58 5 16 0 34 3 40 7 7 4 32 9 57 11 24 2 51 7 60 11 8 5
25 7 38 6 12 -1 22 1 22 5 0 4 6 7 13 8 21 1 105 18 117 22 3 1 8 2 13 1 4 -1
24 6 44 14 20 8 38 13 40 11 3 -2 19 2 38 9 18 8 35 11 39 8 3 -4 6 -2 6 3 0
5 10 10 22 11 11 1 24 6 27 10 3 4 13 9 21 9 27 2 55 9 60 14 3 3 30 13 60 24
30 10 66 23 80 29 14 6 28 11 33 12 4 2 10 4 15 5 4 1 10 2 15 1 4 0 7 3 7 9
0 5 9 10 20 10 11 0 20 5 20 10 0 6 7 10 16 10 19 0 147 60 156 74 4 6 8 8 8
4 0 -4 35 11 78 34 42 23 89 47 104 55 15 8 30 18 33 24 4 5 15 9 26 9 10 0
19 4 19 8 0 5 19 19 43 32 23 13 44 27 47 30 3 4 16 13 30 20 31 17 229 158
251 179 9 9 26 23 39 31 12 8 32 24 45 35 132 117 170 152 244 225 141 141
261 279 370 430 22 30 44 60 48 65 26 34 123 186 123 194 0 5 4 11 8 13 5 2
15 15 23 30 62 119 93 173 100 176 5 2 9 9 9 15 0 7 19 50 41 97 86 177 219
538 219 594 0 9 4 16 9 16 5 0 8 11 6 25 -1 14 1 25 5 25 4 0 7 6 7 13 1 12 6
37 17 85 20 78 29 129 30 165 1 15 4 27 8 27 4 0 7 8 7 18 0 9 2 33 5 52 3 19
7 55 10 80 3 25 8 65 11 90 3 25 7 77 9 115 2 39 7 78 11 88 4 10 3 17 -5 17
-6 0 -8 5 -3 13 10 16 10 307 0 307 -4 0 -3 9 3 20 6 11 7 20 2 20 -4 0 -9 24
-9 53 -1 59 -10 158 -18 202 -3 17 -7 48 -9 70 -3 22 -5 40 -6 40 -1 0 -3 9
-5 20 -18 118 -31 181 -51 258 -9 34 -17 70 -16 80 0 9 -4 17 -10 17 -6 0 -9
3 -6 6 4 3 2 20 -4 37 -5 18 -11 39 -12 47 -1 9 -4 20 -8 25 -5 9 -20 62 -22
77 -1 3 -4 10 -8 14 -5 4 -8 18 -8 31 0 12 -4 23 -10 23 -5 0 -10 11 -10 23 0
13 -3 27 -7 31 -5 4 -8 11 -9 14 0 4 -6 20 -12 35 -7 16 -12 30 -12 31 0 2 -8
21 -17 42 -9 22 -17 41 -18 44 -1 3 -9 22 -19 42 -9 21 -16 40 -16 43 -1 13
-171 329 -210 390 -11 17 -23 37 -27 45 -3 8 -9 17 -12 20 -3 3 -33 45 -66 95
-182 273 -447 560 -715 774 -52 42 -96 79 -98 84 -2 4 -10 7 -17 7 -8 0 -18 6
-22 13 -8 13 -138 104 -173 122 -11 5 -20 13 -20 17 0 5 -5 8 -11 8 -6 0 -23
8 -37 19 -26 18 -57 36 -152 89 -25 13 -51 29 -57 35 -7 5 -13 6 -13 1 0 -5
-4 -4 -8 1 -8 12 -178 95 -193 95 -5 0 -9 5 -9 12 0 6 -3 8 -6 5 -4 -4 -19 0
-33 7 -37 20 -114 51 -121 49 -3 0 -14 4 -25 10 -11 6 -24 12 -30 14 -13 3
-216 72 -235 80 -8 3 -19 7 -25 7 -22 3 -81 19 -90 24 -5 4 -14 7 -20 8 -44 7
-94 18 -150 31 -16 4 -34 7 -40 8 -5 1 -13 3 -17 5 -5 1 -16 3 -25 4 -10 2
-38 6 -63 10 -25 4 -55 8 -67 9 -13 1 -23 4 -23 7 0 3 -17 5 -38 6 -20 0 -62
4 -92 7 -138 16 -218 20 -397 21 -106 1 -193 -1 -193 -4z m-3023 -2175 c0 -8
-4 -12 -9 -9 -5 3 -6 10 -3 15 9 13 12 11 12 -6z m-50 -107 c-3 -8 -6 -5 -6 6
-1 11 2 17 5 13 3 -3 4 -12 1 -19z m-7 -42 c0 -3 -4 -8 -10 -11 -5 -3 -10 -1
-10 4 0 6 5 11 10 11 6 0 10 -2 10 -4z m-20 -36 c0 -5 -2 -10 -4 -10 -3 0 -8
5 -11 10 -3 6 -1 10 4 10 6 0 11 -4 11 -10z m-16 -36 c3 -8 2 -12 -4 -9 -6 3
-10 10 -10 16 0 14 7 11 14 -7z m-17 -46 c2 -17 0 -19 -7 -8 -5 8 -6 18 -4 22
8 12 10 10 11 -14z m-12 -37 c3 -5 1 -12 -5 -16 -5 -3 -10 1 -10 9 0 18 6 21
15 7z m-15 -50 c0 -6 -4 -12 -8 -15 -5 -3 -9 1 -9 9 0 8 4 15 9 15 4 0 8 -4 8
-9z m-17 -56 c-3 -8 -10 -15 -15 -15 -7 0 -6 5 1 13 6 8 7 18 3 22 -4 5 -2 5
5 1 7 -4 10 -13 6 -21z m-13 -50 c0 -8 -2 -15 -4 -15 -2 0 -6 7 -10 15 -3 8
-1 15 4 15 6 0 10 -7 10 -15z m-14 -50 c0 -14 -4 -25 -8 -25 -10 0 -11 34 -1
43 9 10 9 10 9 -18z m-18 -60 c0 -28 -14 -44 -15 -17 -1 19 4 42 10 42 3 0 5
-11 5 -25z m-11 -60 c0 -8 -5 -15 -12 -15 -6 0 -11 8 -11 19 0 10 5 17 11 14
7 -2 12 -10 12 -18z m-13 -37 c-4 -7 -8 -24 -8 -39 -1 -15 -3 -30 -6 -33 -9
-9 -6 58 3 72 11 16 21 16 11 0z m-22 -106 c3 -10 0 -26 -7 -36 -11 -14 -12
-12 -10 16 4 46 9 52 17 20z m-14 -84 c-1 -13 -8 -32 -16 -43 -12 -17 -14 -17
-8 -2 3 10 6 30 6 43 0 13 4 24 9 24 6 0 9 -10 9 -22z m-16 -80 c6 -16 -3 -68
-11 -68 -4 0 -7 18 -7 40 -1 38 10 54 18 28z m-17 -144 c1 -46 -2 -57 -19 -65
-20 -9 -20 -9 -3 4 10 9 14 17 10 20 -7 5 -7 32 -1 95 3 32 13 -5 13 -54z m-5
-88 c0 -2 -7 -7 -16 -10 -8 -3 -12 -2 -9 4 6 10 25 14 25 6z m-9 -39 c-6 -8
-8 -17 -5 -20 4 -4 6 -35 5 -69 0 -35 -1 -87 -1 -115 -1 -29 -5 -53 -11 -53
-6 0 -7 5 -4 10 3 6 0 10 -7 11 -7 0 -8 2 -3 5 6 2 10 53 10 124 0 96 2 120
14 120 10 0 11 -3 2 -13z m2 -282 c4 -8 2 -17 -3 -20 -5 -3 -7 -11 -5 -18 3
-7 7 -59 10 -117 2 -58 6 -118 8 -135 9 -60 21 -190 20 -207 0 -10 3 -18 6
-18 4 0 8 -19 10 -42 1 -23 4 -45 6 -48 2 -4 7 -21 10 -38 3 -18 7 -46 10 -64
3 -17 8 -35 11 -40 3 -4 -1 -8 -8 -8 -10 0 -10 -2 1 -9 8 -5 14 -23 14 -40 0
-17 4 -31 9 -31 4 0 8 -13 8 -29 0 -17 5 -33 11 -37 6 -3 9 -17 6 -30 -2 -14
1 -24 7 -24 6 0 12 -12 12 -27 2 -28 5 -44 17 -73 3 -8 12 -35 20 -60 27 -81
70 -185 81 -192 6 -4 8 -8 4 -8 -7 0 9 -42 53 -135 12 -27 23 -52 24 -55 2
-16 31 -70 37 -70 5 0 8 -6 8 -14 0 -16 130 -246 196 -348 24 -37 44 -72 44
-77 0 -5 4 -11 9 -13 5 -1 37 -39 70 -83 33 -44 65 -85 71 -92 5 -7 10 -14 10
-16 0 -21 339 -369 411 -423 16 -11 26 -24 23 -27 -8 -7 -26 9 -207 189 -150
150 -211 214 -202 214 2 0 -6 10 -18 23 -40 42 -67 77 -67 87 0 6 -4 10 -8 10
-4 0 -15 12 -25 28 -9 15 -29 41 -44 58 -15 17 -39 51 -53 74 -14 23 -33 51
-42 61 -10 11 -18 22 -18 25 0 4 -17 34 -38 68 -78 123 -183 322 -175 330 4 3
1 6 -5 6 -7 0 -12 9 -12 20 0 11 -4 20 -10 20 -5 0 -10 7 -10 15 0 8 -4 23
-10 33 -33 58 -152 381 -144 393 2 4 0 10 -5 13 -9 6 -26 73 -22 94 1 6 -3 12
-9 12 -5 0 -10 13 -10 29 0 17 -4 32 -9 35 -5 4 -8 17 -6 31 1 14 -2 25 -7 25
-5 0 -8 8 -7 18 1 9 -1 28 -4 42 -4 14 -8 36 -10 50 -2 14 -7 32 -10 40 -3 8
-8 35 -11 60 -3 25 -8 59 -10 75 -10 66 -19 152 -20 192 -1 24 -3 43 -6 43 -3
0 -6 58 -5 130 0 78 -4 132 -10 134 -5 3 -3 5 6 5 9 1 19 -6 22 -14z m5362
-1085 c3 -5 1 -10 -4 -10 -6 0 -11 5 -11 10 0 6 2 10 4 10 3 0 8 -4 11 -10z
m-3795 -740 c0 -5 -2 -10 -4 -10 -3 0 -8 5 -11 10 -3 6 -1 10 4 10 6 0 11 -4
11 -10z m-200 -36 c0 -8 -19 -13 -24 -6 -3 5 1 9 9 9 8 0 15 -2 15 -3z m4515
-144 c3 -5 1 -10 -4 -10 -6 0 -11 5 -11 10 0 6 2 10 4 10 3 0 8 -4 11 -10z
m-4612 -699 c14 -17 27 -28 29 -25 3 2 5 -4 5 -13 0 -12 -9 -6 -29 18 -16 19
-33 33 -39 32 -5 -2 -9 2 -9 7 0 18 18 10 43 -19z m92 -81 l20 -25 -22 19
c-13 11 -23 24 -23 29 0 6 1 8 3 6 1 -2 11 -15 22 -29z"/>
</g>
</svg>
